
        <svg xmlns="http://www.w3.org/2000/svg" xmlns:xlink="http://www.w3.org/1999/xlink" version="1.1" width="3285.714285714286" 
        height="3027.125939233918" viewBox="0 0 3285.714285714286 3027.125939233918">
			<rect fill="#153009" width="3285.714285714286" height="3027.125939233918"/>
			<g transform="scale(14.285714285714288) translate(10, 10)">
				<defs id="SvgjsDefs3377"><linearGradient id="SvgjsLinearGradient3382"><stop id="SvgjsStop3383" stop-color="#905e26" offset="0"></stop><stop id="SvgjsStop3384" stop-color="#f5ec9b" offset="0.5"></stop><stop id="SvgjsStop3385" stop-color="#905e26" offset="1"></stop></linearGradient><linearGradient id="SvgjsLinearGradient3386"><stop id="SvgjsStop3387" stop-color="#905e26" offset="0"></stop><stop id="SvgjsStop3388" stop-color="#f5ec9b" offset="0.5"></stop><stop id="SvgjsStop3389" stop-color="#905e26" offset="1"></stop></linearGradient></defs><g id="SvgjsG3378" featureKey="symbolFeature-0" transform="matrix(1.7011105913965376,0,0,1.7011105913965376,20.444515854726568,-8.450053886498836)" fill="url(#SvgjsLinearGradient3382)"><path xmlns="http://www.w3.org/2000/svg" d="M81.6083984,88.3183594H65.909668c-0.2763672,0-0.5,0.2236328-0.5,0.5s0.2236328,0.5,0.5,0.5h15.6987305  c0.2763672,0,0.5-0.2236328,0.5-0.5S81.8847656,88.3183594,81.6083984,88.3183594z"></path><path xmlns="http://www.w3.org/2000/svg" d="M68.8916016,61.5297852c0.0146484-0.0063477,1.418457-0.7182617,3.0268555-0.078125  c1.4951172,0.5952148,2.6879883,2.1474609,3.5458984,4.6132813c0.0717773,0.206543,0.2651367,0.3359375,0.472168,0.3359375  c0.0546875,0,0.1098633-0.0087891,0.1640625-0.027832c0.2612305-0.0908203,0.3989258-0.3754883,0.3081055-0.6362305  c-0.9570313-2.7529297-2.34375-4.5073242-4.1206055-5.2143555c-2.0258789-0.8071289-3.7827148,0.081543-3.8564453,0.1196289  c-0.2451172,0.1269531-0.3408203,0.4287109-0.2138672,0.6738281S68.6474609,61.6557617,68.8916016,61.5297852z"></path><path xmlns="http://www.w3.org/2000/svg" d="M48.5844727,37.0498047c-0.5390625,0.6884766-1.3964844,1.0498047-2.0209961,1.2319336  c-0.2651367,0.0771484-0.4169922,0.3549805-0.3398438,0.6201172c0.0634766,0.2182617,0.2631836,0.3598633,0.4799805,0.3598633  c0.0458984,0,0.0932617-0.0063477,0.1401367-0.0200195c1.097168-0.3203125,1.9716797-0.8647461,2.5195313-1.5649414  c0.0175781-0.0214844,1.7993164-2.1386719,4.2216797-2.5893555c0.2714844-0.0507813,0.4506836-0.3115234,0.4003906-0.5830078  c-0.0507813-0.2714844-0.3120117-0.4487305-0.5830078-0.4003906C50.6162109,34.6225586,48.6738281,36.940918,48.5844727,37.0498047z  "></path><path xmlns="http://www.w3.org/2000/svg" d="M41.3999023,38.684082c0.0927734,0.0756836,0.2045898,0.1123047,0.3154297,0.1123047  c0.1455078,0,0.2890625-0.0629883,0.3881836-0.184082c0.1743164-0.2138672,0.1420898-0.5288086-0.0717773-0.7036133  c-0.3881836-0.3164063-0.6650391-0.7583008-0.8227539-1.3129883c-0.0756836-0.265625-0.3505859-0.421875-0.6176758-0.3442383  c-0.265625,0.0756836-0.4199219,0.3520508-0.3442383,0.6176758C40.4619141,37.625,40.8496094,38.2353516,41.3999023,38.684082z"></path><path xmlns="http://www.w3.org/2000/svg" d="M86.4614258,36.2490234l-7.1650391-3.5209961c-0.1777344-0.0864258-0.3886719-0.0620117-0.5410156,0.0649414  c-0.1518555,0.1264648-0.2148438,0.3305664-0.1606445,0.5205078l0.3500977,1.2304688l-2.6259766-0.4241943  c-0.0564575-0.0773926-0.1147461-0.1489868-0.1759033-0.2145996c0.249939-0.2818604,0.2928467-0.5698242,0.2965088-0.633667  c0.0097656-0.1904297-0.0893555-0.3696289-0.2553711-0.4628906l-1.8666992-1.043457  c-0.0327148-0.0180664-0.0668945-0.0327148-0.1025391-0.0429688c-0.428772-0.1270752-0.9260254-0.0866089-1.418335,0.0286255  c0.8760986-2.3759155,3.0001221-10.6262817-5.9425049-18.3840942c-0.0205078-0.015625-2.0366211-1.5620117-1.7714844-3.4023438  c0.1967773-1.3662109,1.6523438-2.6494141,4.2241211-3.7338867l-0.0634766,0.7592773  c-0.6000977,0.3496094-2.0449219,1.3427734-2.3310547,2.9453125c-0.2236328,1.2524414,0.3061523,2.5512695,1.5927734,3.8789063  c0.1152344,0.1069336,11.4570313,10.793457,8.2758789,16.5996094c-0.1328125,0.2421875-0.0439453,0.5458984,0.1982422,0.6787109  c0.2416992,0.1337891,0.5463867,0.0439453,0.6787109-0.1982422c3.5507813-6.4799805-7.9780273-17.3515625-8.4526367-17.793457  c-1.0307617-1.0644531-1.4711914-2.0688477-1.3095703-2.9853516c0.262207-1.4853516,2.0234375-2.355957,2.0410156-2.3647461  c0.1591797-0.0771484,0.2661133-0.2329102,0.2807617-0.4086914l0.152832-1.8334961  c0.0146484-0.1708984-0.0600586-0.3374023-0.1967773-0.4404297c-0.1362305-0.1030273-0.3168945-0.128418-0.4775391-0.0688477  c-3.4438477,1.2983398-5.3291016,2.9208984-5.6030273,4.8227539c-0.0655518,0.4545898-0.0336304,0.888916,0.0616455,1.2949829  l-13.9504395,8.7674561c-0.9525757-1.3688965-2.270752-1.7837524-2.3001709-1.7924194  c-1.6650391-0.4418945-3.1889648-0.2553711-4.5351563,0.5537109c-2.7703247,1.6669312-4.0384521,5.5715332-4.5048218,7.4519043  c-0.2992554-0.046936-0.5044556-0.0542603-0.5254517-0.0544434l-3.8032227-0.0776367  c-6.3549805-2.0214844-10.4023438-2.3071289-12.0292969-0.8461914c-0.7050781,0.6333008-0.7612305,1.4458008-0.6884766,1.7949219  c0.0073242,0.0522461,0.8046875,5.2207031,6.9912109,5.4755859c1.3027344,0.1884766,4.7314453,1.1186523,5.0922852,3.1455078  c-0.0219727,0.3129883-0.0317383,1.4326172,0.8193359,2.3168945c0.1600342,0.1661987,0.3446655,0.3084717,0.543335,0.4367676  c0.2834473,0.7797852,1.5777588,4.6963501-0.4046631,6.2443848c-0.0268555,0.0209961-0.0512695,0.0444336-0.0732422,0.0703125  c-0.0684814,0.0801392-1.6638794,1.9780273-1.6810913,3.6260986c-0.0003052,0.005127-0.0015259,0.0098267-0.0016479,0.0149536  c0,0.0040283-0.0013428,0.0082397-0.0013428,0.0122681c0,0.0698853,0.0145874,0.1361694,0.0404663,0.1965332  c0.000061,0.000061,0,0.0001831,0.000061,0.0002441c0.1518555,0.3554688,0.0917969,0.7480469,0.0400391,0.956543  c-0.2485962,0.1540527-0.4317017,0.3236084-0.5731201,0.4949951c-1.659729-0.6036377-3.5119019-1.8305054-4.2667236-2.8729248  c-0.6621094-0.7202148-2.4760742-1.7895508-4.6132813-0.7368164c-2.7348633,0.7490234-5.9951172,1.3979492-6.527832,1.1450195  c-0.0810547-0.0483398-0.1831055-0.0742188-0.2666016-0.0708008c-0.0512085,0.0009766-0.8922729,0.0358276-1.9648438,0.9076538  c-0.0089111,0.0065308-0.0171509,0.0128174-0.0256348,0.0198975c-0.505188,0.4155884-1.0601196,1.0161133-1.6081543,1.8883667  c-0.1347656,0.2148438-0.0878906,0.4960938,0.109375,0.6552734c0.0776367,0.0625,1.9448242,1.5332031,4.9667969,0.8256836  c0.1811523-0.0424805,0.3237305-0.1821289,0.3701172-0.3623047l0.1616211-0.6293945l5.4926758-0.9042969  c0.5356445,0.7265625,2.125,2.765625,3.6176758,3.5478516c0.1743164,0.1464844,0.9160156,0.7895508,1.546875,1.6030273  c0.0986328,0.1269531,0.2460938,0.1933594,0.3955078,0.1933594c0.1069336,0,0.2148438-0.0341797,0.3061523-0.1049805  c0.2177734-0.1694336,0.2578125-0.4833984,0.0883789-0.7016602c-0.7890625-1.0175781-1.7050781-1.7661133-1.7436523-1.7973633  c-0.027832-0.0224609-0.0581055-0.0419922-0.090332-0.0581055c-1.5800781-0.7978516-3.4677734-3.4848633-3.4863281-3.5117188  c-0.1103516-0.1582031-0.3027344-0.2416992-0.4912109-0.2070313l-6.1196289,1.0073242  c-0.1958008,0.0322266-0.3540039,0.1767578-0.4033203,0.3686523l-0.1655273,0.6450195  c-1.6635742,0.3105469-2.8579102-0.1425781-3.4326172-0.4506836c0.3349609-0.4729614,0.6586304-0.8197632,0.9598389-1.0900269  c0.3323364,0.0714722,0.8088379,0.2283325,1.0177002,0.4801636C16.5351563,49.8134766,16.6772461,49.875,16.8212891,49.875  c0.1123047,0,0.2255859-0.0375977,0.3188477-0.1152344c0.2124023-0.1762695,0.2416992-0.4916992,0.0654297-0.7041016  c-0.1985474-0.2391968-0.4668579-0.411499-0.7384033-0.5402832c0.1860962-0.0788574,0.3320313-0.1192017,0.4122314-0.1345215  c1.2871094,0.3955078,5.3862305-0.6464844,7.1616211-1.1342773c0.0327148-0.0087891,0.0639648-0.0209961,0.09375-0.0356445  c2.0097656-1.0224609,3.4145508,0.4379883,3.434082,0.4521484c0.8258667,1.147583,2.8189697,2.4879761,4.6576538,3.1661377  c-0.0019531,0.0635986,0.000061,0.1230469,0.0078735,0.1737061c0.0175781,0.1166992,0.0761719,0.2226563,0.1645508,0.300293  c0.1049805,0.0917969,0.5112305,0.3862305,1.4125977,0.3862305c0.5986328,0,1.4155273-0.1293945,2.5073242-0.5341797  c0.027832-0.012207,2.831543-1.215332,5.9169922-0.6103516c0.269043,0.0527344,0.5332031-0.1240234,0.5869141-0.3945313  c0.0532227-0.2709961-0.1235352-0.5336914-0.3945313-0.5869141c-3.3925781-0.6655273-6.3842773,0.6210938-6.4838867,0.6650391  c-1.4643555,0.5424805-2.2744141,0.4951172-2.6401367,0.4086914c0.0771484-0.1274414,0.2294922-0.2900391,0.5302734-0.4487305  c0.1049805-0.0551758,0.1870117-0.1464844,0.2314453-0.2568359c0.012207-0.0302734,0.2358398-0.6020508,0.152832-1.2773438  c1.5708008-0.2485352,6.5078125-0.777832,11.0854492,1.3476563c0.0566406,0.0693359,0.1142578,0.15625,0.1435547,0.2216797  c-0.0009766,0.0004883-0.0024414,0.0009766-0.0039063,0.0014648c-0.2607422,0.090332-0.3989258,0.3754883-0.3081055,0.6362305  c0.0189209,0.0545044,0.050415,0.1002197,0.0843506,0.1431274c0.012085,0.0982056,0.0441895,0.1947632,0.1153564,0.2738647  c0.7197266,0.7998047,1.375,2.2885742,1.4912109,3.3891602c0.0019531,0.0188599,0.0117188,0.0343018,0.015686,0.0523682  c0.0063477,0.0293579,0.013855,0.0571289,0.0255737,0.0852661c0.0144653,0.0345459,0.03302,0.0648193,0.0543213,0.0947266  c0.0100708,0.0142212,0.0137329,0.0310669,0.0255127,0.0444946c0.2124023,0.2426758,5.222168,5.9321289,9.3681641,5.762207  c0.0752563-0.0032349,0.1530762,0.0110474,0.229248,0.0126953c0.2872314,0.3235474,0.5981445,0.6523438,0.9377441,0.9873047  c0.0947266,0.0932617,0.2211914,0.144043,0.3510742,0.144043c0.0375977,0,0.0756836-0.0043945,0.1132813-0.0131836  c0.1669922-0.0385742,0.3027344-0.1606445,0.3588867-0.3222656l0.1349487-0.3874512  c1.1654663,0.4469604,2.0941162,1.0892944,2.1272583,1.1115723c1.2875977,0.7734375,2.3486328,0.1582031,2.3935547,0.1318359  c0.043457-0.0258789,0.0830078-0.0585938,0.1166992-0.0961914c1.4750977-1.6474609,2.9516602-3.0112305,3.0073242-3.0673828  c1.0883789-1.2695313,2.3950195-1.9677734,3.8842773-2.0756836c3.3754883-0.2446289,6.6699219,2.5869141,6.7226563,2.6318359  c0.390625,0.3071289,0.840332,0.4897461,1.2636719,0.597168c-0.0922852,0.03125-0.175293,0.0893555-0.2368164,0.1694336  c-0.1088867,0.1420898-0.1333008,0.3320313-0.0644531,0.4970703c1.2016602,2.8735352,3.4716797,3.7539063,4.7763672,4.0234375  c-0.3100586,0.1416016-0.6411133,0.1645508-0.6459961,0.1645508c-0.1875,0.0102539-0.3540039,0.1245117-0.4301758,0.2958984  c-0.0766602,0.171875-0.050293,0.3720703,0.0678711,0.5180664c0.4208984,0.5200195,0.5844727,1.0351563,0.6328125,1.456543  c-0.0175781-0.0048828-0.034668-0.0092773-0.0527344-0.0131836c-0.6445313-0.1430664-1.1943359,0.4174805-1.2548828,0.4819336  c-0.1391602,0.1494141-0.1733398,0.3686523-0.0864258,0.5532227c1.1943359,2.5371094,0.765625,4.7822266,0.1689453,6.2524414  c-0.3012695-3.3291016-3-4.3442383-3.0327148-4.355957c-0.2011719-0.0727539-0.4262695-0.0092773-0.5595703,0.1577148  c-0.2407227,0.300293-0.3779297,0.7075195-0.4545898,1.1132813c-0.4975586-0.9101563-0.9462891-2.0146484-1.1367188-2.5332031  c-0.6958008-1.6054688-1.3706055-2.3710938-2.1245117-2.409668c-0.5351563-0.03125-0.9345703,0.3769531-1.1035156,0.6894531  c-0.0693359,0.1855469-0.1621094,0.3144531-0.2617188,0.4042969c0.6962891-2.8549805-1.0766602-4.0458984-1.159668-4.0996094  c-0.1459961-0.0942383-0.3286133-0.105957-0.4868164-0.0322266c-0.1567383,0.074707-0.2636719,0.2255859-0.2822266,0.3979492  c-0.0429688,0.3994141-0.3642578,0.7280273-0.7265625,0.9711914c0.0898438-0.5893555-0.0014648-1.0800781-0.2724609-1.4648438  c-0.5722656-0.8120117-1.6918945-0.7583008-1.7109375-0.7539063c-2.4487305,0-4.1074219,0.5751953-4.9301758,1.7104492  c-0.8574219,1.1821289-0.4487305,2.4985352-0.4433594,2.4985352c0.7758789,4.5917969-1.1621094,6.5820313-1.1791992,6.5991211  c-0.1030273,0.0996094-0.1582031,0.2387695-0.1518555,0.3823242c0.0761719,1.671875,2.7148438,3.328125,3.2519531,3.6484375  c0.4501953,0.5180664,0.4526367,1.800293,0.3383789,2.6196289c-1.5170898,1.4179688-3.1728516,7.1279297-3.375,7.8500977  L60.472168,91.5c-0.0112305,0.0673828-0.0087891,0.1367188,0.0083008,0.203125l0.4692383,1.8789063  c-1.2490234,0.6699219-3.1538086,0.434082-3.921875,0.2998047c-0.0283203-0.7127075,0.2802124-1.319519,0.5891113-1.7457886  c0.296875,0.1154785,0.727356,0.2433472,1.1975098,0.2433472c0.2958984,0,0.605957-0.0507813,0.9033203-0.1879883  c0.2509766-0.1157227,0.3603516-0.4130859,0.2446289-0.6635742c-0.1152344-0.2509766-0.4121094-0.3613281-0.6635742-0.2446289  c-0.2929688,0.1356201-0.6456299,0.1085815-0.9545288,0.034668l1.2924194-2.5092773  c0.015625-0.0302734,0.027832-0.0615234,0.0371094-0.0942383c2.7675781-9.894043,0.5029297-11.4052734,0.0205078-11.6074219  c-0.0341797-0.0146484-0.0698242-0.0249023-0.1064453-0.03125c-7.4755859-1.3232422-9.8510742-8.5131836-9.8930664-8.6357422  c-1.1723633-2.6577148-6.2304688-3.3330078-6.465332-3.3623047c-6.7985229-0.5914917-9.4489136-2.5999146-10.3634644-3.5944824  c0.7977905-0.0899048,1.605896-0.0654907,2.1466675,0.2478027c0.2382813,0.1376953,0.5439453,0.0561523,0.6831055-0.1821289  c0.1386719-0.2387695,0.0566406-0.5449219-0.1821289-0.6831055c-1.8227539-1.0556641-5.1787109,0.1699219-5.3203125,0.2226563  c-0.0336914,0.012207-0.065918,0.0283203-0.0957031,0.0478516c-1.4902344,0.9545898-4.7636719,1.2143555-4.796875,1.2167969  c-0.1918945,0.0146484-0.3583984,0.1381836-0.4282227,0.3178711l-2.2436523,5.7817383  c-0.0712891,0.1845703-0.0273438,0.394043,0.112793,0.5341797l0.4711914,0.4711914  c-0.5776367,1.5922852-1.5756836,2.3886719-2.1328125,2.7275391c-0.2324829-0.519043-0.3659668-0.967041-0.4464111-1.3588867  c0.3515015-0.1379395,0.8501587-0.3755493,1.2784424-0.7460938c0.2089844-0.1806641,0.2314453-0.4960938,0.0507813-0.7050781  c-0.1806641-0.2099609-0.4970703-0.2324219-0.7050781-0.0507813c-0.2272339,0.1964722-0.4880981,0.3448486-0.7192383,0.4542236  c0.0172729-0.3308716,0.0786133-0.5526123,0.1162109-0.6568604c0.9951172-0.9052734,2.1816406-4.9663086,2.6640625-6.7436523  c0.0087891-0.0322266,0.0141602-0.0654297,0.0166016-0.0986328c0.1450195-2.2504883,2.1132813-2.7177734,2.1352539-2.7270508  c2.965332-0.2700195,7.0859375-3.5932617,7.2602539-3.734375c0.2143555-0.1743164,0.246582-0.4892578,0.0727539-0.7036133  c-0.1743164-0.2138672-0.4882813-0.2470703-0.7036133-0.0727539c-0.0400391,0.0327148-4.0551758,3.2719727-6.7792969,3.5239258  c-0.9570313,0.2045898-2.8012695,1.2197266-2.9794922,3.5976563c-0.7456055,2.7363281-1.8466797,5.8740234-2.3330078,6.2036133  c-0.0825195,0.0449219-0.1503906,0.1118164-0.1962891,0.1938477c-0.0239868,0.0426025-0.3806152,0.7270508-0.2354126,1.9766846  c0.0024414,0.0281372-0.0025024,0.055603,0.0049438,0.0838623c0.0018921,0.0072632,0.0095215,0.010437,0.0117188,0.0175781  c0.0897827,0.668396,0.3118896,1.4797974,0.8139648,2.4526367c0.0878906,0.1704102,0.262207,0.2705078,0.4443359,0.2705078  c0.0585938,0,0.1181641-0.0102539,0.1757813-0.0317383c0.09375-0.0351563,2.3105469-0.8969727,3.2353516-3.8579102  c0.0556641-0.1772461,0.0078125-0.3710938-0.1235352-0.5024414l-0.4599609-0.4599609l2.0136719-5.1894531  c0.8984375-0.0922852,3.4643555-0.4243164,4.8959961-1.3125c0.2687378-0.0969238,0.6826782-0.2200928,1.1507568-0.3289795  c0.680481,0.9868774,3.2544556,3.6858521,11.3829346,4.3924561c0.6090698,0.0782471,1.7078247,0.3015747,2.7854614,0.6898804  c-1.3322754,0.6107178-3.6540527,1.9185181-4.5374146,3.9346313c-0.4902344,1.1196289-0.472168,2.2958984,0.0532227,3.496582  c0.0136719,0.03125,0.0307617,0.0615234,0.0507813,0.0893555c0.0400391,0.0561523,0.9921875,1.3696289,2.8999023,2.1621094  c0.1445313,0.1230469,0.6455078,0.6005859,0.6391602,1.28125c-0.0073242,0.7583008-0.6420898,1.6010742-1.8222656,2.4291992  c-0.2341309,0.1528931-4.3217773,2.8505859-6.7271729,5.6867065c-0.0188599,0.0183105-0.041748,0.0303345-0.0579834,0.052063  c-0.0072632,0.0097046-0.0084839,0.0214844-0.0148926,0.0314941c-0.6748047,0.8077393-1.2017822,1.6223145-1.4663696,2.3933105  H22.8701172c-0.2763672,0-0.5,0.2236328-0.5,0.5s0.2236328,0.5,0.5,0.5h12.0757446  c0.0250854,0.0223389,0.0369263,0.055481,0.0668335,0.0727539c0.5756836,0.3339844,1.5424805,0.6826172,2.6030273,0.6826172  c0.8208618,0,1.6969604-0.2160034,2.4921875-0.8039551c0.0639038,0.0296021,0.1334229,0.048584,0.2084961,0.048584h15.6987305  c0.2763672,0,0.5-0.2236328,0.5-0.5s-0.2236328-0.5-0.5-0.5H40.7957153  c-0.0025024-0.0118408,0.0025635-0.0239868-0.0007935-0.0356445c-0.0126953-0.0449219-1.1450195-4.5351563,10.7509766-8.9394531  c0.0830078-0.0307617,0.1567383-0.0830078,0.2128906-0.1518555c0.0488281-0.0595703,0.4726563-0.6044922,0.3095703-1.3706055  c-0.1513672-0.7080078-0.7441406-1.3251953-1.8032227-1.8525391c-0.003418-0.0009766-0.3168945-0.1411133-0.3500977-0.4150391  c-0.0214844-0.1781006,0.0628052-0.8334961,1.6481934-2.0332642c1.6539307,1.9260864,4.1407471,3.855957,7.7497559,4.5220337  c0.2543945,0.2202148,1.7568359,1.9433594-0.5883789,10.3540039l-1.2260742,2.3808594  c-0.3764648,0.3310547-1.7709961,1.706543-1.4174805,3.6152344c0.0361328,0.1948242,0.1831055,0.3496094,0.3754883,0.3955078  c0.074707,0.0180664,1.0522461,0.2456055,2.237793,0.2456055c1.0361328,0,2.2314453-0.1743164,3.1206055-0.8144531  c0.1665039-0.1196289,0.2426758-0.3286133,0.1928711-0.5268555l-0.5322266-2.1303711l0.5283203-3.1894531  c0.7094727-2.4960938,2.1938477-6.7119141,3.15625-7.3994141c0.1064453-0.0761719,0.1791992-0.190918,0.2016602-0.3198242  c0.0478516-0.269043,0.4331055-2.6577148-0.6264648-3.7172852c-0.0302734-0.0302734-0.0649414-0.0571289-0.1020508-0.0786133  c-0.9995117-0.5825195-2.5615234-1.7836914-2.7919922-2.6865234c0.5366211-0.6577148,2.0229492-2.9418945,1.2734375-7.3525391  c-0.0112305-0.0371094-0.2758789-0.9150391,0.2910156-1.6860352c0.6191406-0.8422852,2.0415039-1.2871094,4.1396484-1.2875977  c0.0058594,0.0019531,0.6245117-0.0180664,0.8691406,0.3334961c0.2075195,0.2983398,0.1469727,0.8740234-0.1699219,1.6210938  c-0.0761719,0.1777344-0.0419922,0.3837891,0.0869141,0.5283203s0.3310547,0.2016602,0.5151367,0.1464844  c0.0717773-0.0214844,1.4233398-0.4335938,2.0605469-1.4077148c0.3530273,0.5498047,0.6826172,1.5825195,0.0483398,3.2612305  c-0.0517578,0.137207-0.0405273,0.2905273,0.0302734,0.4189453c0.0712891,0.1289063,0.1953125,0.2192383,0.3393555,0.2480469  c0.5073242,0.1025391,1.581543-0.0234375,1.9985352-1.1523438c0.0009766-0.0009766,0.0791016-0.1108398,0.1455078-0.1108398  c0.0151367,0,0.4589844-0.0415039,1.2495117,1.7817383c0.0439453,0.1196289,1.0859375,2.9477539,2.1352539,4.0136719  c0.1479492,0.1494141,0.3759766,0.190918,0.565918,0.1030273c0.1914063-0.0883789,0.3071289-0.2875977,0.2885742-0.4975586  c-0.03125-0.3583984-0.0234375-1.0957031,0.1376953-1.5957031c0.8046875,0.4692383,2.512207,1.887207,1.8710938,5.2407227  c-0.0429688,0.2246094,0.0722656,0.449707,0.2792969,0.546875c0.206543,0.0957031,0.4536133,0.0400391,0.5991211-0.1367188  c0.1328125-0.1621094,3.1513672-3.9375,1.1386719-8.7294922c0.0170898-0.0068359,0.0322266-0.0107422,0.0429688-0.0107422  c0.0009766,0.0004883,0.0141602-0.1948242,0.1850586,0.347168c0.0644531,0.203125,0.2495117,0.3432617,0.4624023,0.3496094  c0.2216797,0.0112305,0.40625-0.1225586,0.4819336-0.3217773c0.0234375-0.0620117,0.4951172-1.3447266-0.2753906-2.7768555  c0.4902344-0.1748047,1.0620117-0.527832,1.2651367-1.2382813c0.0429688-0.1503906,0.012207-0.3120117-0.081543-0.4370117  s-0.2416992-0.1992188-0.3979492-0.2001953c-0.1289063-0.0009766-2.9985352-0.0537109-4.550293-2.9223633  c0.4331055-0.1425781,0.8706055-0.4648438,1.0556641-1.1118164c0.0449219-0.1582031,0.0087891-0.3291016-0.0961914-0.4560547  S79.5561523,59.4897461,79.3955078,59.5c-0.0126953,0.0024414-1.2827148,0.1074219-2.0649414-0.5058594  c-0.1459961-0.1279297-3.6333008-3.128418-7.4277344-2.8603516c-1.7670898,0.1269531-3.3066406,0.9423828-4.5351563,2.3808594  c-0.0146484,0.0136719-1.4833984,1.3691406-2.9702148,3.0219727c-0.1621094,0.0683594-0.6743164,0.2294922-1.2851563-0.1357422  c-0.0653076-0.0460815-1.0551147-0.7363892-2.3406982-1.2224121l0.1395264-0.4006348  c0.0585938-0.1674805,0.0234375-0.3535156-0.0913086-0.4887695c-0.0126953-0.0146484-1.2680664-1.5117188-0.90625-2.984375  c0.2231445-0.9052734,1.0336914-1.6459961,2.3867188-2.1918945c0.6367188-0.2202148,15.5859375-5.4760742,14.9711914-12.8388672  c-0.0229492-0.2753906-0.2583008-0.4892578-0.5395508-0.456543c-0.2753906,0.0229492-0.4794922,0.2646484-0.456543,0.5395508  c0.550293,6.5932617-14.1533203,11.7592773-14.3256836,11.8193359c-1.6914063,0.6821289-2.703125,1.6542969-3.0068359,2.8896484  c-0.3891602,1.5805664,0.5283203,3.074707,0.9350586,3.6376953L57.81427,59.8865356  c-0.2603149-0.0639648-0.5234985-0.1140137-0.789917-0.1439819c-1.4694214-1.7459106-2.0724487-3.2653809-1.7426147-4.4422607  c0.4995117-1.7836914,2.9770508-2.3886719,3.0336914-2.4033203c13.3037109-4.065918,12.8261719-15.6738281,12.8193359-15.7905273  c-0.0011597-0.0216675-0.012207-0.0402832-0.0161133-0.0612793c-0.0041504-0.0230103-0.0007324-0.0457764-0.0083008-0.0686035  c-0.0039673-0.0120239-0.0132446-0.0201416-0.0180054-0.0316162c-0.0133667-0.0325317-0.031311-0.0601807-0.0507202-0.0890503  c-0.0167236-0.0244141-0.0318604-0.048645-0.0521851-0.069397c-0.02948-0.0311279-0.0627441-0.0540771-0.0985718-0.0765991  c-0.015686-0.0095215-0.0296631-0.0200806-0.0463257-0.027771c-0.0401001-0.0192261-0.0814209-0.0288086-0.1255493-0.0353394  c-0.0247192-0.0042725-0.0484009-0.0076294-0.0738525-0.0080566c-0.0125732,0.0004272-0.0240479-0.0055542-0.0367432-0.0039673  c-0.0224609,0.0012207-0.0410767,0.012146-0.0626221,0.0161743c-0.022522,0.0042114-0.0447998,0.0007935-0.0672607,0.0082397  c-6.3911133,2.1166992-9.324707-0.4824219-9.3520508-0.5068359c-0.1606445-0.1503906-0.3989258-0.1777344-0.5888672-0.0703125  c-2.3203125,1.3149414-4.612793,0.7553711-4.6347656,0.7490234c-0.1967773-0.0483398-0.4008789,0.0219727-0.5224609,0.1816406  c-1.8100586,2.3759766-4.7709961,2.9448242-4.8007813,2.9506836c-0.184082,0.0336914-0.3344727,0.1674805-0.3886719,0.3466797  c-0.4063721,1.3425903-0.9581299,2.5325317-1.557251,3.5630493l-9.4223633-12.4872437  c1.0809326-0.3049316,1.5509033-1.2144775,1.7271729-1.7091064c0.5209961-0.1508789,0.8515625-0.4228516,0.9848633-0.8115234  c0.2495117-0.7299805-0.3847656-1.4599609-0.4941406-1.5771484c-0.1696167-0.1526489-0.3443604-0.286499-0.5202637-0.4040527  c0.3865967-0.338623,0.6693726-0.6577148,0.6848145-0.6750488c0.0297852-0.0336914,0.0546875-0.0717773,0.0742188-0.112793  c0.144043-0.2998047,0.3085938-0.4897461,0.440918-0.5073242c0.0810547-0.015625,0.1899414,0.0385742,0.2783203,0.1000977  l-0.3178711,1.5004883c-0.2202148,2.7163086,3.4970703,3.2172852,3.6557617,3.2373047  c0.0209961,0.0024414,0.0419922,0.0039063,0.0625,0.0039063c0.1728516,0,0.3349609-0.0893555,0.4262695-0.2387695  c0.1030273-0.1679688,0.0976563-0.3803711-0.0131836-0.5429688c-0.3232422-0.4746094-0.1337891-1.6025391,0.0620117-2.2016602  c0.0844727-0.2587891-0.0532227-0.5375977-0.3095703-0.6274414c-0.3212891-0.112793-0.3955078-0.2573242-0.4238281-0.3569336  c-0.1196289-0.421875,0.3012695-1.1572266,0.5776367-1.5292969c0.5200195-0.2167969,1.2041016-0.2578125,1.6777344-0.2421875  c-0.1254883,1.1279907,0.3833618,1.8870239,0.9697876,2.3465576c-0.2098389,0.590332-0.5275879,1.7554321-0.3276978,3.0386963  c-0.0874023,0.0454102-0.1767578,0.078125-0.2929688,0.0766602c-0.043457-0.0014648-0.1767578-0.0068359-0.3491211-0.1933594  c-0.1875-0.203125-0.503418-0.215332-0.706543-0.0288086c-0.203125,0.1875-0.2158203,0.5039063-0.0288086,0.706543  c0.3798828,0.4121094,0.7861328,0.5078125,1.0600586,0.515625c0.0131836,0,0.0263672,0.0004883,0.0395508,0.0004883  c0.6459961,0,1.1235352-0.4443359,1.1767578-0.4956055c0.1254883-0.121582,0.1787109-0.2993164,0.1401367-0.4697266  c-0.2410889-1.0654297-0.0015259-2.0976563,0.1837158-2.670166c0.0059814,0.0018311,0.0130005,0.0053101,0.0189209,0.0070801  c0.1293945,0.0380859,0.2666016,0.0229492,0.3833008-0.0415039c0.1171875-0.0644531,0.2036133-0.1733398,0.2397461-0.3017578  l0.8134766-2.8974609c0.1774292-1.4962158-0.0346069-2.6427002-0.4152222-3.5245972l13.8222656-8.6868896  c0.6201782,1.2277832,1.663269,2.0334473,1.7130737,2.0698853c9.8994141,8.5898438,5.5874023,17.4594727,5.3994141,17.8325195  c-0.0326538,0.0646362-0.0482178,0.1327515-0.0515747,0.2006836c-0.4267578,0.192749-0.7897949,0.3942871-1.0065308,0.5239258  c-5.800293-1.7739258-7.9111328-0.4814453-7.9506836-0.4521484c-0.1420898,0.0537109-0.7075195,0.0356445-1.2133789-0.0361328  c-1.4238281-0.6274414-4.2973633-1.1362305-4.9375-1.2451172c-1.3291016-0.9907227-2.9160156-1.5078125-4.7192383-1.5375977  c-0.0029297,0-0.0058594,0-0.0083008,0c-0.2724609,0-0.4956055,0.2182617-0.5,0.4916992  c-0.0043945,0.2763672,0.2158203,0.5039063,0.4916992,0.5083008c1.6293945,0.0268555,3.0512695,0.5,4.2260742,1.4067383  c0.065918,0.0507813,0.1435547,0.0839844,0.2255859,0.0976563c0.0341797,0.0053711,3.449707,0.5654297,4.871582,1.2172852  c0.0419922,0.019043,0.0864258,0.0327148,0.1323242,0.0395508c0.4125977,0.0644531,1.4257813,0.1865234,1.9150391-0.0688477  c0.019043-0.0112305,1.9570313-1.1049805,7.3862305,0.6005859c0.1425781,0.0429688,0.2958984,0.0234375,0.4213867-0.0571289  c0.5073242-0.328125,2.1191406-1.2011719,2.9765625-0.996582l1.2792969,0.715332  c-0.2504883,0.0805664-0.6943359,0.1196289-1.4370117-0.0166016c-0.2456055-0.0498047-0.4814453,0.0952148-0.5625,0.3271484  c-0.0043945,0.012207-0.4365234,1.2216797-1.2734375,1.6044922c-0.3291016,0.1513672-0.6796875,0.1489258-1.0712891-0.0053711  c-0.2578125-0.0996094-0.546875,0.0253906-0.6484375,0.2822266c-0.1010742,0.2568359,0.0253906,0.546875,0.2822266,0.6484375  c0.3178711,0.125,0.6293945,0.1875,0.9331055,0.1875c0.3178711,0,0.6269531-0.0683594,0.9248047-0.2055664  c0.8603516-0.3959961,1.387207-1.2788086,1.6328125-1.793457c0.4898682,0.0617676,0.9083862,0.0523071,1.263855-0.0177002  c0.1731567,0.1378784,0.3883057,0.3554077,0.4241333,0.5509033c0.0112305,0.0615234,0.0097656,0.1411133-0.0849609,0.2626953  c-0.0805664,0.1025391-0.1176758,0.2319336-0.1035156,0.3613281c0.0068359,0.0654297,0.0029297,0.3662109-0.1464844,0.5327148  c-0.034668,0.0385742-0.1401367,0.15625-0.4731445,0.15625c-0.2402344,0-0.4467773,0.1713867-0.4912109,0.4077148  c-0.1196289,0.6289063-0.440918,1.2714844-0.6645508,1.2739258c-0.1313477,0.0097656-0.684082-0.0136719-0.9423828-0.2719727  c-0.0742188-0.0737305-0.1704102-0.206543-0.152832-0.5053711c0.0161133-0.2753906-0.1938477-0.512207-0.4697266-0.5283203  c-0.2744141-0.0131836-0.5117188,0.1943359-0.5283203,0.4697266c-0.0380859,0.6469727,0.2207031,1.0488281,0.4448242,1.2719727  c0.5151367,0.5141602,1.2958984,0.565918,1.5800781,0.565918c0.0537109,0,0.0898438-0.0019531,0.1030273-0.0029297  c0.9228516-0.0073242,1.3544922-1.0947266,1.5263672-1.7197266c0.4023438-0.081543,0.6582031-0.277832,0.8120117-0.4492188  c0.3334961-0.3710938,0.3969727-0.8393555,0.4033203-1.1054688c0.0929565-0.15448,0.1448975-0.3178101,0.1702881-0.4846191  l2.9473877,0.4758301c0.1699219,0.0273438,0.3398438-0.0332031,0.453125-0.1616211  c0.1137695-0.1274414,0.1542969-0.3046875,0.1074219-0.46875l-0.2573242-0.9042969l4.9208984,2.418457l-5.3378906,1.3095703  l0.3745117-0.5541992c0.1542969-0.2290039,0.0942383-0.5395508-0.1347656-0.6943359  c-0.2290039-0.1542969-0.5395508-0.0942383-0.6943359,0.1347656l-1.0996094,1.628418  c-0.1157227,0.1713867-0.1137695,0.3959961,0.0043945,0.565918c0.0947266,0.1357422,0.2490234,0.2138672,0.4101563,0.2138672  c0.0395508,0,0.0795898-0.0048828,0.1191406-0.0146484l7.9326172-1.9458008  c0.2041016-0.050293,0.3554688-0.2226563,0.3779297-0.4321289C86.7602539,36.5424805,86.6499023,36.3417969,86.4614258,36.2490234z   M48.9223633,75.6728516c0.0839844,0.6972656,0.652832,1.0986328,0.9355469,1.2080078  c0.9023438,0.4511719,1.1665039,0.8666992,1.2294922,1.1357422c0.0444336,0.1914063-0.0053711,0.3535156-0.0498047,0.4487305  c-11.0849609,4.1455078-11.409668,8.5693359-11.2612305,9.7924805c-1.4287109,1.3041992-3.2055664,0.7470703-3.9331055,0.4291992  c0.1826782-0.5744629,0.5793457-1.2071533,1.0960693-1.8569336c0.3735962,0.1656494,0.9841309,0.3549805,1.8458252,0.3549805  c0.0083008,0,0.0170898,0,0.0253906,0c0.2763672-0.0014648,0.4990234-0.2260742,0.4980469-0.5024414  c-0.0009766-0.2753906-0.2246094-0.4975586-0.5-0.4975586c-0.0004883,0-0.0014648,0-0.0019531,0  c-0.5198975,0.0098877-0.90625-0.0672607-1.1831055-0.1556396c1.906189-2.0631714,4.7536011-4.1473389,6.128418-5.0469971  c1.4902344-1.0444336,2.2514648-2.137207,2.2617188-3.2475586c0.012207-1.3120117-1.043457-2.097168-1.0883789-2.1298828  c-0.0332031-0.0244141-0.0693359-0.0444336-0.1074219-0.0600586c-1.5-0.6054688-2.3393555-1.6015625-2.5009766-1.8066406  c-0.3920898-0.9267578-0.4018555-1.7905273-0.0307617-2.6386719c1.0160522-2.3241577,4.5391235-3.6552124,4.8857422-3.7810669  c0.7236328,0.3914185,1.324707,0.8778076,1.5888672,1.473938c0.0119019,0.0380859,0.6257935,1.8901978,2.1730957,3.9470825  C49.4829712,73.8401489,48.8171387,74.8033447,48.9223633,75.6728516z M55.7076416,59.6847534  c-3.2703247-0.3164673-7.2762451-4.5923462-7.9139404-5.2953491c-0.1668701-1.1777954-0.7883911-2.6152344-1.5268555-3.5473022  c0.1068115-0.1288452,0.1567383-0.2598267,0.1784668-0.352356c0.1362305-0.5849609-0.3769531-1.1425781-0.4814453-1.2485352  c-0.0410156-0.0415039-0.0893555-0.0761719-0.1425781-0.1010742c-0.0574341-0.0271606-0.1152344-0.0477295-0.1727295-0.0740967  c0.6419678-0.5460815,1.8637085-1.7037964,3.0588379-3.4353027l6.2052002,8.2235718  c-0.2564697,0.3354492-0.4660645,0.7229614-0.5922852,1.1705933C53.9400024,56.3733521,54.4130249,57.9362793,55.7076416,59.6847534  z M51.0605469,40.8798828c0.8378906-0.2084961,3.2158203-0.9550781,4.9194336-3.0146484  c0.753418,0.1259766,2.6982422,0.2958984,4.7514648-0.7519531c0.9021606,0.6486816,3.9138794,2.3058472,9.3948975,0.6959229  c-0.1196899,2.3966064-1.315979,10.8348999-12.0701904,14.1229248c-0.0819702,0.0187988-1.3672485,0.3331299-2.4343262,1.2022705  l-6.3352051-8.3959351C49.9569092,43.6383057,50.5870972,42.3549194,51.0605469,40.8798828z M40.4545898,28.7631836  c-0.2001953,0.0356445-0.359375,0.1923828-0.4018555,0.3911133c-0.0102539,0.0488281-0.2641602,1.1875-1.3984375,1.331543  c-0.0180664,0.0053711-1.8808594,0.4023438-3.1689453-0.2480469c-0.2514648-0.2070313-1.1420898-0.7890625-2.8183594-0.4326172  c-1.7817383,0.2890625-4.8896484,0.3486328-5.6513672-0.7172852c-0.1601563-0.2246094-0.4726563-0.2763672-0.6972656-0.1162109  s-0.2768555,0.4726563-0.1162109,0.6972656c1.3681641,1.9165039,6.0913086,1.2104492,6.6494141,1.1186523  c1.3979492-0.2993164,1.984375,0.2084961,2,0.2231445c0.034668,0.0332031,0.0732422,0.0620117,0.1157227,0.0844727  c1.0549927,0.5614014,2.3441772,0.5544434,3.1334839,0.4788818l9.9645386,13.2057495  c-1.6563721,2.4899292-3.4345703,3.8238525-3.4608154,3.8432007c-0.0013428,0.0009766-0.0018921,0.0025635-0.0032349,0.00354  c-4.3856812-1.659668-8.7277832-1.2446899-10.397583-0.9863281c0.2575684-0.9248657,0.9703979-1.9390869,1.3134155-2.3531494  c2.0216675-1.6300659,1.4265747-4.8728027,0.9533691-6.517334c0.4302979,0.1019897,0.8937378,0.170166,1.4226074,0.170166  c0.2714844,0,0.5561523-0.0136719,0.8530273-0.0405273c0.2749023-0.0249023,0.4775391-0.2680664,0.4526367-0.543457  c-0.0253906-0.2744141-0.2617188-0.4799805-0.543457-0.4526367c-1.5131836,0.140625-2.5947266-0.1088867-3.2060547-0.7358398  c-0.6479492-0.6645508-0.5498047-1.5805664-0.5493164-1.5864258c0.0003052-0.0023193-0.0003662-0.0046387-0.000061-0.006958  c0.0003052-0.0024414,0.00177-0.0042725,0.0020142-0.0067139c0.0268555-0.2631836,0.2436523-2.6025391-0.449707-3.6430664  c-0.1533203-0.2299805-0.4638672-0.2924805-0.6933594-0.1386719c-0.2294922,0.1533203-0.2919922,0.4633789-0.1386719,0.6933594  c0.1551514,0.232605,0.2433472,0.6420898,0.2902222,1.0996094c-1.6641235-1.6749878-4.7994995-2.1546021-5.0094604-2.1831055  c-5.3857422-0.2246094-6.0668945-4.4423828-6.097168-4.6430664c-0.003418-0.0200195-0.078125-0.5014648,0.3896484-0.9067383  c0.7719727-0.668457,3.2402344-1.4165039,11.1074219,1.0947266c0.0458984,0.0146484,0.0932617,0.0224609,0.1416016,0.0234375  l3.8818359,0.0791016c0.0136719,0,1.3618164,0.0214844,2.3999023,0.9521484  c0.140625,0.1552734,0.2875977,0.4438477,0.2529297,0.5463867C40.9638672,28.5795898,40.8447266,28.6933594,40.4545898,28.7631836z   M50.1274414,24.0893555l-0.6367188,2.2509766c-0.4267578-0.2836914-0.9375-0.8706055-0.6240234-1.9785156  c0.0400391-0.1411133,0.0161133-0.2919922-0.0649414-0.4140625c-0.081543-0.121582-0.2119141-0.2016602-0.3574219-0.21875  c-0.0708008-0.0083008-1.7460938-0.1987305-2.8754883,0.3505859c-0.0654297,0.0317383-0.1230469,0.0776367-0.1689453,0.1337891  c-0.1171875,0.144043-1.1381836,1.4384766-0.8330078,2.5205078c0.0717773,0.2548828,0.2397461,0.5771484,0.6274414,0.824707  c-0.1010742,0.4199219-0.2158203,1.0766602-0.1445313,1.6982422c-0.8564453-0.2490234-2.0810547-0.8027344-1.9931641-1.9223633  l0.3681641-1.71875c0.0327148-0.1508789-0.0068359-0.3085938-0.1064453-0.4267578  c-0.0595703-0.0698242-0.5976563-0.6860352-1.3339844-0.5922852c-0.480957,0.0610352-0.8793945,0.3974609-1.1850586,1  c-0.1162109,0.1274414-0.4628906,0.4931641-0.8554688,0.7861328c-0.00177,0.0013428-0.0025024,0.003418-0.0042725,0.0047607  c-0.0350342-0.0134888-0.0698242-0.0281982-0.1043091-0.0406494c0.427002-1.7366943,1.5795898-5.3587036,4.0490112-6.8444824  c1.1044922-0.6650391,2.3706055-0.8139648,3.7485352-0.4482422c0.0693359,0.0211792,1.0254517,0.3309937,1.74646,1.3483276  l-2.6234131,1.6487427c-0.2338867,0.1469727-0.3041992,0.4555664-0.1572266,0.6894531  c0.0952148,0.1508789,0.2573242,0.2338867,0.4238281,0.2338867c0.0908203,0,0.1831055-0.0249023,0.265625-0.0766602  l2.5592651-1.6083984C50.1204224,21.9963379,50.2658081,22.9064941,50.1274414,24.0893555z"></path><path xmlns="http://www.w3.org/2000/svg" d="M37.5356445,45.7514648c-0.0224609,0.2753906,0.1821289,0.5166016,0.4575195,0.5395508  c0.0141602,0.0009766,0.027832,0.0014648,0.0415039,0.0014648c0.2578125,0,0.4765625-0.1977539,0.4980469-0.4589844  c0.0698242-0.8525391,0.3945313-1.8701172,0.7241211-1.9560547c0.2128906-0.0556641,0.3642578-0.2441406,0.3730469-0.4638672  c0.0195313-0.487793,0.1376953-1.0615234,0.1904297-1.1459961c0.105957-0.0473633,0.1923828-0.1298828,0.2441406-0.2333984  c0.065918-0.1313477,0.6391602-1.3120117,0.5292969-2.2485352c-0.0322266-0.2749023-0.2895508-0.472168-0.5546875-0.4384766  c-0.2744141,0.0322266-0.4707031,0.2807617-0.4384766,0.5546875c0.0571289,0.4853516-0.2182617,1.2202148-0.378418,1.574707  c-0.3842773,0.331543-0.5234375,1.0390625-0.5722656,1.5917969C37.7558594,43.65625,37.5668945,45.3769531,37.5356445,45.7514648z"></path><path xmlns="http://www.w3.org/2000/svg" d="M44.5888672,92.0395508H18.7529297c-0.2763672,0-0.5,0.2236328-0.5,0.5s0.2236328,0.5,0.5,0.5h25.8359375  c0.2763672,0,0.5-0.2236328,0.5-0.5S44.8652344,92.0395508,44.5888672,92.0395508z"></path></g><g id="SvgjsG3379" featureKey="nameFeature-0" transform="matrix(0.592068090308349,0,0,0.592068090308349,-0.8999440506160191,166.62934947132905)" fill="url(#SvgjsLinearGradient3386)"><path d="M15.56 10.76 c4.24 0 7.63996 1.41332 10.19996 4.24 s3.84 6.44 3.84 10.84 c0 4.16 -1.24 7.66668 -3.72 10.52 l3.56 3.24 l-2.92 3.08 l-4.04 -3.68 c-1.97332 1.12 -4.28 1.68 -6.92 1.68 c-4.21332 0 -7.60664 -1.4 -10.17996 -4.2 s-3.86 -6.34668 -3.86 -10.64 c0 -4.42668 1.28 -8.04668 3.84 -10.86 s5.96 -4.22 10.2 -4.22 z M7.79996 25.84 c0 2.90668 0.686756 5.22668 2.06008 6.96 s3.28664 2.6 5.73996 2.6 c1.36 0 2.18668 -0.13332 2.48 -0.4 l-2.68 -2.44 l2.92 -3.12 l3.24 2.96 c1.17332 -1.52 1.76 -3.70668 1.76 -6.56 c0 -3.04 -0.69332 -5.43332 -2.08 -7.18 s-3.29336 -2.62 -5.72004 -2.62 c-2.37332 0 -4.25332 0.86668 -5.64 2.6 s-2.08 4.13332 -2.08 7.2 z M39.133 11.44 l-0.000039 17.88 c0 2.10668 0.47332 3.64668 1.42 4.62 s2.43336 1.46 4.46004 1.46 c2.18668 0 3.72 -0.48668 4.6 -1.46 s1.32 -2.51332 1.32 -4.62 l0 -17.88 l6.28 0 l0 17.88 c0 3.57332 -1.02 6.36 -3.06 8.36 s-5.08668 3 -9.14 3 c-4.13332 0 -7.19332 -1 -9.18 -3 s-2.98 -4.78668 -2.98 -8.36 l0 -17.88 l6.28 0 z M83.066 11.44 l0 5.28 l-15.08 0 l0 6.12 l13.84 0 l0 4.88 l-13.84 0 l0 7 l15.4 0 l0 5.28 l-21.68 0 l0 -28.56 l21.36 0 z M108.079 11.44 l0 5.28 l-15.08 0 l0 6.12 l13.84 0 l0 4.88 l-13.84 0 l0 7 l15.4 0 l0 5.28 l-21.68 0 l0 -28.56 l21.36 0 z M127.132 11.44 c2.4 0 4.39344 0.74 5.98012 2.22 s2.38 3.36668 2.38 5.66 c0 3.57332 -1.50668 5.96 -4.52 7.16 l0 0.08 c1.01332 0.29332 1.80664 0.78 2.37996 1.46 s1.00664 1.47332 1.29996 2.38 s0.48 2.36 0.56 4.36 c0.10668 2.61332 0.48 4.36 1.12 5.24 l-6.28 0 c-0.34668 -0.88 -0.61336 -2.53332 -0.80004 -4.96 c-0.21332 -2.56 -0.68 -4.23332 -1.4 -5.02 s-1.89332 -1.18 -3.52 -1.18 l-6.32 0 l0 11.16 l-6.28 0 l0 -28.56 l15.4 0 z M124.93212 24.36 c1.33332 0 2.38004 -0.3 3.14004 -0.9 s1.14 -1.66 1.14 -3.18 c0 -1.44 -0.37332 -2.46 -1.12 -3.06 s-1.81336 -0.9 -3.20004 -0.9 l-6.88 0 l0 8.04 l6.92 0 z M162.838 11.44 c3.04 0 5.44 0.82668 7.2 2.48 s2.64 3.88 2.64 6.68 c0 2.82668 -0.88 5.06 -2.64 6.7 s-4.14668 2.46 -7.16 2.46 l-6.68 0 l0 10.24 l-6.28 0 l0 -28.56 l12.92 0 z M161.198 24.88 c1.81332 0 3.16668 -0.33332 4.06 -1 s1.34 -1.76 1.34 -3.28 c0 -1.46668 -0.43332 -2.54668 -1.3 -3.24 s-2.22 -1.04 -4.06 -1.04 l-5.04 0 l0 8.56 l5 0 z M186.971 11.44 l10.68 28.56 l-6.52 0 l-2.16 -6.36 l-10.68 0 l-2.24 6.36 l-6.36 0 l10.84 -28.56 l6.44 0 z M183.651 18.48 l-3.72 10.48 l7.4 0 l-3.6 -10.48 l-0.08 0 z M217.424 11.44 l0 5.28 l-8.56 0 l0 23.28 l-6.28 0 l0 -23.28 l-8.56 0 l0 -5.28 l23.4 0 z M226.077 11.44 l0 10.96 l11.56 0 l0 -10.96 l6.28 0 l0 28.56 l-6.28 0 l0 -12.32 l-11.56 0 l0 12.32 l-6.28 0 l0 -28.56 l6.28 0 z M252.17 11.44 l4.52 19.44 l0.08 0 l4.96 -19.44 l5.88 0 l4.88 19.68 l0.08 0 l4.68 -19.68 l6.16 0 l-7.68 28.56 l-6.24 0 l-4.84 -19.44 l-0.08 0 l-4.76 19.44 l-6.36 0 l-7.56 -28.56 l6.28 0 z M298.903 11.44 l10.68 28.56 l-6.52 0 l-2.16 -6.36 l-10.68 0 l-2.24 6.36 l-6.36 0 l10.84 -28.56 l6.44 0 z M295.583 18.48 l-3.72 10.48 l7.4 0 l-3.6 -10.48 l-0.08 0 z M312.156 11.44 l6.68 11.28 l6.64 -11.28 l7 0 l-10.6 17.6 l0 10.96 l-6.28 0 l0 -11.12 l-10.52 -17.44 l7.08 0 z M343.809 10.76 c3.49332 0 6.2732 0.80004 8.33988 2.40004 s3.1 3.86668 3.1 6.8 l-6.08 0 c-0.08 -1.44 -0.56668 -2.52 -1.46 -3.24 s-2.27332 -1.08 -4.14 -1.08 c-1.30668 0 -2.36 0.28668 -3.16 0.86 s-1.2 1.36664 -1.2 2.37996 c0 0.82668 0.24668 1.42668 0.74 1.8 s1.19332 0.70664 2.1 0.99996 s2.49336 0.72 4.76004 1.28 c2.37332 0.58668 4.2 1.22668 5.48 1.92 s2.25332 1.58 2.92 2.66 s1 2.40668 1 3.98 c0 1.81332 -0.48 3.42664 -1.44 4.83996 s-2.36 2.48664 -4.2 3.21996 s-3.92 1.1 -6.24 1.1 c-3.54668 0 -6.46 -0.88668 -8.74 -2.66 s-3.42 -4.20664 -3.42 -7.29996 l0 -0.2 l6.08 0 c0 1.68 0.57332 2.98 1.72 3.9 s2.66668 1.38 4.56 1.38 c1.68 0 3.03332 -0.3 4.06 -0.9 s1.54 -1.48668 1.54 -2.66 c0 -0.77332 -0.28 -1.42664 -0.84 -1.95996 s-1.30668 -0.96664 -2.24 -1.29996 s-2.50664 -0.75332 -4.71996 -1.26 c-2.56 -0.64 -4.42668 -1.32 -5.6 -2.04 s-2.06664 -1.59332 -2.67996 -2.62 s-0.92 -2.26 -0.92 -3.7 c0 -1.78668 0.51332 -3.34668 1.54 -4.68 s2.36668 -2.32 4.02 -2.96 s3.36 -0.96 5.12 -0.96 z"></path></g>
			</g>
		</svg>
	